<svg id="SvgjsSvg1001" width="288" height="288" xmlns="http://www.w3.org/2000/svg" version="1.1" xmlns:xlink="http://www.w3.org/1999/xlink" xmlns:svgjs="http://svgjs.com/svgjs"><defs id="SvgjsDefs1002"></defs><g id="SvgjsG1008"><svg xmlns="http://www.w3.org/2000/svg" enable-background="new 0 0 32 32" viewBox="0 0 32 32" width="288" height="288"><path fill="none" stroke="#085263" stroke-linecap="round" stroke-linejoin="round" stroke-miterlimit="22.926" stroke-width="2" d="
				M8,15.999c1.652,0,3-1.348,3-3s-1.348-3-3-3s-3,1.348-3,3S6.348,15.999,8,15.999z" clip-rule="evenodd" class="colorStroke1e272b svgStroke"></path><path fill="none" stroke="#085263" stroke-linecap="round" stroke-linejoin="round" stroke-miterlimit="22.926" stroke-width="2" d="M5 12.999v-2c0-3.3 2.7-6 6-6M18 15.999c1.652 0 3-1.348 3-3s-1.348-3-3-3-3 1.348-3 3S16.348 15.999 18 15.999z" clip-rule="evenodd" class="colorStroke1e272b svgStroke"></path><path fill="none" stroke="#085263" stroke-linecap="round" stroke-linejoin="round" stroke-miterlimit="22.926" stroke-width="2" d="
				M15,12.999v-2c0-3.3,2.7-6,6-6" clip-rule="evenodd" class="colorStroke1e272b svgStroke"></path><rect width="32" height="32" fill="none"></rect></svg></g></svg>